<?xml version="1.0"?>
<svg width="333" height="300" xmlns="http://www.w3.org/2000/svg" xmlns:svg="http://www.w3.org/2000/svg">
 <g class="layer">
  <title>Layer 1</title>
  <g id="svg_1" stroke="#000" stroke-width="3">
   <path d="m62.27,293.73c-18.7,0.01 -37.56,-3.21 -55.75,-9.9c9.98,-57.68 50.39,-104.92 104.1,-124.6c0,-0.01 0,-0.02 0,-0.02c0.02,-0.01 0.03,-0.02 0.05,-0.03c-9.81,-56.35 10.88,-114.97 55.84,-152.45c44.96,37.49 65.67,96.12 55.86,152.48c53.71,19.69 94.12,66.95 104.1,124.62c-54.94,20.2 -116.04,8.8 -159.94,-27.87c-0.01,0 -0.02,0 -0.03,0c0,0 -0.01,0 -0.02,0c-29.37,24.53 -66.44,37.76 -104.21,37.77zm1.44,-27.06c30.15,-0.34 59.67,-10.76 83.45,-29.86c-6.34,-7.43 -12.09,-15.55 -17.14,-24.31c-5.05,-8.75 -9.18,-17.76 -12.45,-26.95c-36.02,13.97 -64.58,42.91 -78.01,79.2c8.03,1.37 16.11,2.01 24.15,1.92zm206.78,0c7.64,0.01 15.32,-0.62 22.94,-1.92c-13.43,-36.28 -41.98,-65.25 -77.99,-79.23c-3.27,9.2 -7.41,18.24 -12.47,27c-5.05,8.76 -10.81,16.86 -17.14,24.29c24.1,19.36 54.1,29.8 84.66,29.86zm-104.01,-48.92c0.01,-0.01 0.02,-0.02 0.03,-0.03c4.78,-5.77 9.15,-12.02 13.03,-18.74c3.88,-6.71 7.11,-13.62 9.72,-20.65c-7.41,-1.26 -15.01,-1.92 -22.78,-1.92c-7.75,0 -15.33,0.66 -22.73,1.92c2.61,7.03 5.82,13.94 9.7,20.65c3.88,6.72 8.24,12.98 13.03,18.77zm-29.56,-65.72c9.59,-1.76 19.46,-2.68 29.56,-2.68c10.12,0 20.01,0.91 29.61,2.68c5.91,-38.18 -4.88,-77.37 -29.59,-107.14c-24.7,29.77 -35.49,68.96 -29.59,107.14l0.01,0z" fill="#0081a3" id="svg_2"/>
   <path d="m124.92,202.89c-8.47,-17.21 -13.62,-35.29 -15.65,-53.47m26.41,-8.19c1.29,17.74 6.12,35.48 14.75,52.17" fill="none" id="svg_3"/>
   <path d="m176.92,149.69c24.43,1.55 47.39,8.5 67.7,19.67m-20.97,19.68c-16.3,-7.6 -34.38,-12.06 -53.43,-12.58" fill="none" id="svg_4"/>
   <path d="m133.06,246.73c16.25,-9.94 30.59,-23.43 41.74,-40.14m22.87,14.5c-15.04,22.71 -34.98,40.52 -57.57,52.82" fill="none" id="svg_5"/>
   <ellipse cx="166" cy="109" fill="#0081a3" id="svg_6" rx="14" ry="15"/>
   <ellipse cx="234.5" cy="229" fill="#0081a3" id="svg_7" rx="14" ry="15"/>
   <ellipse cx="94.5" cy="232" fill="#0081a3" id="svg_8" rx="14" ry="15" transform="matrix(1 0 0 1 0 0)"/>
  </g>
 </g>
</svg>