<?xml version="1.0" encoding="UTF-8"?>
<svg xmlns="http://www.w3.org/2000/svg" xmlns:xlink="http://www.w3.org/1999/xlink" width="33px" height="30px" viewBox="0 0 33 30" version="1.1">
<g id="surface1">
<path style="fill-rule:nonzero;fill:rgb(0%,50.588238%,63.921571%);fill-opacity:1;stroke-width:3;stroke-linecap:butt;stroke-linejoin:miter;stroke:rgb(0%,0%,0%);stroke-opacity:1;stroke-miterlimit:4;" d="M 62.27983 293.710938 C 43.556463 293.75 24.714844 290.507812 6.503906 283.828125 C 16.51598 226.132812 56.919034 178.90625 110.605824 159.21875 C 110.645241 159.21875 110.645241 159.179688 110.684659 159.179688 C 100.869673 102.8125 121.56392 44.21875 166.5 6.71875 C 211.475497 44.21875 232.169744 102.851562 222.354759 159.21875 C 276.080966 178.90625 316.48402 226.171875 326.456676 283.828125 C 271.54794 304.023438 210.411222 292.617188 166.539418 255.976562 C 166.539418 255.976562 166.5 255.976562 166.5 255.976562 C 166.5 255.976562 166.5 255.976562 166.460582 255.976562 C 137.09446 280.507812 100.041903 293.710938 62.27983 293.710938 Z M 63.698864 266.679688 C 93.853338 266.328125 123.377131 255.898438 147.145952 236.796875 C 140.839134 229.375 135.084162 221.25 130.038707 212.5 C 124.953835 203.75 120.854403 194.726562 117.582741 185.546875 C 81.555043 199.53125 52.977273 228.476562 39.575284 264.765625 C 47.57706 266.132812 55.65767 266.757812 63.698864 266.679688 Z M 270.483665 266.679688 C 278.130682 266.679688 285.817116 266.054688 293.424716 264.765625 C 279.98331 228.476562 251.444957 199.492188 215.456676 185.507812 C 212.185014 194.726562 208.046165 203.75 202.961293 212.539062 C 197.915838 221.289062 192.160866 229.375 185.814631 236.796875 C 209.93821 256.171875 239.935014 266.601562 270.483665 266.679688 Z M 166.460582 217.734375 C 166.5 217.734375 166.5 217.734375 166.5 217.734375 C 171.308949 211.953125 175.644886 205.703125 179.54723 198.984375 C 183.410156 192.265625 186.642401 185.351562 189.243963 178.320312 C 181.833452 177.070312 174.26527 176.40625 166.460582 176.40625 C 158.73473 176.40625 151.166548 177.070312 143.756037 178.320312 C 146.357599 185.351562 149.550426 192.265625 153.45277 198.984375 C 157.315696 205.703125 161.691051 211.953125 166.460582 217.734375 Z M 136.93679 152.03125 C 146.51527 150.273438 156.369673 149.335938 166.460582 149.335938 C 176.590909 149.335938 186.48473 150.273438 196.102628 152.03125 C 202.01527 113.867188 191.214844 74.648438 166.5 44.882812 C 141.785156 74.648438 131.024148 113.867188 136.897372 152.03125 Z M 136.93679 152.03125 " transform="matrix(0.0990991,0,0,0.1,0,0)"/>
<path style="fill:none;stroke-width:3;stroke-linecap:butt;stroke-linejoin:miter;stroke:rgb(0%,0%,0%);stroke-opacity:1;stroke-miterlimit:4;" d="M 124.914418 202.890625 C 116.439631 185.664062 111.315341 167.617188 109.265625 149.414062 M 135.675426 141.210938 C 136.976207 158.984375 141.785156 176.71875 150.417614 193.398438 " transform="matrix(0.0990991,0,0,0.1,0,0)"/>
<path style="fill:none;stroke-width:3;stroke-linecap:butt;stroke-linejoin:miter;stroke:rgb(0%,0%,0%);stroke-opacity:1;stroke-miterlimit:4;" d="M 176.90625 149.6875 C 201.34517 151.25 224.325639 158.203125 244.62571 169.375 M 223.65554 189.023438 C 207.336648 181.445312 189.283381 176.992188 170.205256 176.445312 " transform="matrix(0.0990991,0,0,0.1,0,0)"/>
<path style="fill:none;stroke-width:3;stroke-linecap:butt;stroke-linejoin:miter;stroke:rgb(0%,0%,0%);stroke-opacity:1;stroke-miterlimit:4;" d="M 133.073864 246.71875 C 149.31392 236.796875 163.661932 223.28125 174.817116 206.601562 M 197.679332 221.09375 C 182.621804 243.789062 162.676491 261.601562 140.090199 273.90625 " transform="matrix(0.0990991,0,0,0.1,0,0)"/>
<path style="fill-rule:nonzero;fill:rgb(0%,50.588238%,63.921571%);fill-opacity:1;stroke-width:3;stroke-linecap:butt;stroke-linejoin:miter;stroke:rgb(0%,0%,0%);stroke-opacity:1;stroke-miterlimit:4;" d="M 179.980824 108.984375 C 179.980824 100.703125 173.713423 93.984375 165.987571 93.984375 C 158.261719 93.984375 151.994318 100.703125 151.994318 108.984375 C 151.994318 117.265625 158.261719 123.984375 165.987571 123.984375 C 173.713423 123.984375 179.980824 117.265625 179.980824 108.984375 Z M 179.980824 108.984375 " transform="matrix(0.0990991,0,0,0.1,0,0)"/>
<path style="fill-rule:nonzero;fill:rgb(0%,50.588238%,63.921571%);fill-opacity:1;stroke-width:3;stroke-linecap:butt;stroke-linejoin:miter;stroke:rgb(0%,0%,0%);stroke-opacity:1;stroke-miterlimit:4;" d="M 248.488636 228.984375 C 248.488636 220.703125 242.221236 213.984375 234.495384 213.984375 C 226.769531 213.984375 220.502131 220.703125 220.502131 228.984375 C 220.502131 237.265625 226.769531 243.984375 234.495384 243.984375 C 242.221236 243.984375 248.488636 237.265625 248.488636 228.984375 Z M 248.488636 228.984375 " transform="matrix(0.0990991,0,0,0.1,0,0)"/>
<path style="fill-rule:nonzero;fill:rgb(0%,50.588238%,63.921571%);fill-opacity:1;stroke-width:3;stroke-linecap:butt;stroke-linejoin:miter;stroke:rgb(0%,0%,0%);stroke-opacity:1;stroke-miterlimit:4;" d="M 108.51669 231.992188 C 108.51669 223.710938 102.24929 216.992188 94.48402 216.992188 C 86.758168 216.992188 80.490767 223.710938 80.490767 231.992188 C 80.490767 240.273438 86.758168 246.992188 94.48402 246.992188 C 102.24929 246.992188 108.51669 240.273438 108.51669 231.992188 Z M 108.51669 231.992188 " transform="matrix(0.0990991,0,0,0.1,0,0)"/>
</g>
</svg>
